Coordinates
version=1
nRows=9
nColumns=63
inDegrees=yes

Units are S.I. units (second, meters, Newtons, ...)
If the header above contains a line with 'inDegrees', this indicates whether rotational values are in degrees (yes) or radians (no).

endheader
time	pelvis_tilt	pelvis_list	pelvis_rotation	pelvis_tx	pelvis_ty	pelvis_tz	hip_flexion_r	hip_adduction_r	hip_rotation_r	knee_angle_r	knee_angle_r_beta	ankle_angle_r	subtalar_angle_r	mtp_angle_r	hip_flexion_l	hip_adduction_l	hip_rotation_l	knee_angle_l	knee_angle_l_beta	ankle_angle_l	subtalar_angle_l	mtp_angle_l	L5_S1_Flex_Ext	L5_S1_Lat_Bending	L5_S1_axial_rotation	L4_L5_Flex_Ext	L4_L5_Lat_Bending	L4_L5_axial_rotation	L3_L4_Flex_Ext	L3_L4_Lat_Bending	L3_L4_axial_rotation	L2_L3_Flex_Ext	L2_L3_Lat_Bending	L2_L3_axial_rotation	L1_L2_Flex_Ext	L1_L2_Lat_Bending	L1_L2_axial_rotation	L1_T12_Flex_Ext	L1_T12_Lat_Bending	L1_T12_axial_rotation	Abs_r3	Abs_r2	Abs_r1	Abs_t1	Abs_t2	neck_flexion	neck_bending	neck_rotation	arm_flex_r	arm_add_r	arm_rot_r	elbow_flex_r	pro_sup_r	wrist_flex_r	wrist_dev_r	arm_flex_l	arm_add_l	arm_rot_l	elbow_flex_l	pro_sup_l	wrist_flex_l	wrist_dev_l
      8.78333333	     -5.10220721	      1.52257374	     90.78076349	      0.19225467	      0.66680881	      0.61913461	     -1.56046411	     -4.50962065	     -5.89910948	      7.94928378	      0.13874118	     29.26976539	     -1.73323455	      0.00000000	      0.80754303	      2.20333945	    -12.93424939	      8.32803368	      0.14535161	     30.62750485	     16.62664191	      0.00000000	     -0.17795035	     -0.10268351	     -0.72124603	     -0.33047160	     -0.13656907	     -0.76632391	     -0.29235463	     -0.24966469	     -0.76632391	     -0.20337946	     -0.24966469	     -0.63109028	     -0.16524470	     -0.20939221	     -0.58601240	     -0.10168083	     -0.15905676	     -0.54093452	     -1.27108157	     -1.16157640	     -4.01135405	      0.00000000	      0.00000000	      6.65118214	     -0.68568814	      4.49982103	     30.86712152	    -36.47552529	    -42.79983554	    149.71216253	     87.39468585	     -9.57904455	      3.74012009	     24.16613189	    -34.36739717	    -44.36208427	    149.84925707	     87.75825775	    -19.94119462	    -11.04502964
      8.80000000	     -4.88087794	      0.47880338	     90.81957663	      0.19139281	      0.66528076	      0.61934101	     -0.40817247	     -4.31403005	     -6.23690411	      7.87818142	      0.13750020	     29.35361900	     -1.59156019	      0.00000000	      1.91581573	      2.01665134	    -12.77886387	      8.34275292	      0.14560851	     30.51008962	     16.64274894	      0.00000000	     -0.13779148	     -0.05977748	     -0.70886228	     -0.25589255	     -0.07950405	     -0.75316617	     -0.22637762	     -0.14534297	     -0.75316617	     -0.15748188	     -0.14534297	     -0.62025449	     -0.12795317	     -0.12189824	     -0.57595060	     -0.07873405	     -0.09259532	     -0.53164671	     -0.98423074	     -0.67621485	     -3.94247934	      0.00000000	      0.00000000	      9.13070840	     -1.12707818	      4.41388573	     22.12181392	    -34.53453200	    -42.63449492	    149.47468820	     87.90692631	     -9.76811986	      6.29648089	     15.83951976	    -28.48621635	    -43.86309928	    149.83532726	     86.51805099	    -20.23111535	     -8.97742363
      8.81666667	     -4.31772415	     -0.79634316	     90.90087636	      0.18956720	      0.66277160	      0.61953808	      1.07320950	     -3.85581551	     -6.98894363	      7.98544675	      0.13937234	     29.67215799	     -0.88726362	      0.00000000	      3.38696797	      1.50988199	    -12.17506402	      8.59469583	      0.15000574	     30.90899973	     16.34676783	      0.00000000	     -0.02783041	      0.02476555	     -0.65492022	     -0.05168386	      0.03293818	     -0.69585273	     -0.04572258	      0.06021496	     -0.69585273	     -0.03180738	      0.06021496	     -0.57305519	     -0.02584332	      0.05050191	     -0.53212268	     -0.01590230	      0.03836184	     -0.49119017	     -0.19878985	      0.28015288	     -3.64246979	      0.00000000	      0.00000000	     10.77945209	     -2.21733789	      3.71014489	     14.29223032	    -33.33642191	    -41.58724688	    148.79370065	     88.19645183	    -10.21725621	     12.34168012	      9.14194664	    -22.45017995	    -41.06036997	    149.78677627	     83.58316553	    -19.18662516	     -2.20511984
      8.83333333	     -4.03617798	     -1.47757021	     90.77528030	      0.18847112	      0.66043490	      0.62046804	      2.02522958	     -3.78594573	     -8.92804928	      8.21919394	      0.14345200	     30.54821286	      1.99664613	      0.00000000	      4.14487539	      1.27260360	    -11.93306673	      8.62632101	      0.15055770	     31.31606166	     16.29120917	      0.00000000	     -0.03356268	      0.05720899	     -0.69175474	     -0.06232926	      0.07608795	     -0.73498941	     -0.05514013	      0.13909793	     -0.73498941	     -0.03835879	      0.13909793	     -0.60528540	     -0.03116631	      0.11666056	     -0.56205072	     -0.01917772	      0.08861672	     -0.51881605	     -0.23973490	      0.64715948	     -3.84733233	      0.00000000	      0.00000000	     13.34653795	     -2.41322066	      2.64194034	      8.71604208	    -31.70463223	    -38.88027730	    146.52802881	     88.16121632	     -9.27075127	     16.29487961	      4.01155049	    -17.60165420	    -39.82391404	    149.63669597	     83.05401061	    -16.34608864	      8.02591704
      8.85000000	     -3.82256892	     -2.18843624	     90.79110986	      0.18746189	      0.65813507	      0.62156242	      3.02498389	     -3.64697763	     -9.03136651	      8.48987284	      0.14817623	     30.88665342	      2.10729895	      0.00000000	      4.97664006	      1.09746567	    -11.52463814	      8.70978708	      0.15201446	     31.85147728	     16.18102496	      0.00000000	     -0.01837347	      0.08650477	     -0.89351077	     -0.03412137	      0.11505135	     -0.94935519	     -0.03018577	      0.21032770	     -0.94935519	     -0.02099904	      0.21032770	     -0.78182192	     -0.01706160	      0.17640053	     -0.72597750	     -0.01049860	      0.13399589	     -0.67013308	     -0.13123985	      0.97855929	     -4.96943884	      0.00000000	      0.00000000	     15.35195855	     -2.61415770	      2.86603067	      4.85440171	    -30.12308329	    -34.00912610	    142.04813029	     87.87981623	     -8.50404851	     12.96088591	     -0.28501895	    -13.70213265	    -38.25770043	    148.57456208	     85.01920160	    -16.00395675	     14.97685460
      8.86666667	     -3.66686771	     -2.74801662	     90.69886948	      0.18701299	      0.65655642	      0.62332110	      3.94054934	     -3.54107764	     -8.94458668	      8.82366176	      0.15400195	     31.14070206	      2.10679424	      0.00000000	      5.64770681	      0.94868005	    -11.27193935	      8.74074337	      0.15255475	     32.18232464	     16.07913286	      0.00000000	     -0.01215480	      0.11445608	     -0.86177205	     -0.02257267	      0.15222659	     -0.91563281	     -0.01996911	      0.27828852	     -0.91563281	     -0.01389172	      0.27828852	     -0.75405055	     -0.01128694	      0.23339884	     -0.70018979	     -0.00694525	      0.17729247	     -0.64632904	     -0.08682049	      1.29475008	     -4.79291763	      0.00000000	      0.00000000	     16.60477787	     -3.37921421	      2.24632267	      0.72890602	    -28.69598105	    -31.00410619	    137.06941161	     87.13174411	     -6.92696076	      6.35696992	     -2.18222203	    -10.49322175	    -34.64712459	    144.03912871	     86.77247766	    -12.69126699	     14.74382135
      8.88333333	     -3.34618640	     -3.34759397	     90.76048417	      0.18614082	      0.65550095	      0.62509456	      4.81089193	     -3.27756750	     -8.95337803	      9.03368146	      0.15766749	     31.11657228	      1.99558251	      0.00000000	      6.34110183	      0.65609759	    -10.86903295	      8.72708396	      0.15231635	     32.43311797	     15.98719576	      0.00000000	      0.00201971	      0.17520432	     -0.82092772	      0.00375081	      0.23302175	     -0.87223570	      0.00331819	      0.42599179	     -0.87223570	      0.00230833	      0.42599179	     -0.71831175	      0.00187551	      0.35727665	     -0.66700377	      0.00115407	      0.27139150	     -0.61569579	      0.01442662	      1.98194634	     -4.56575368	      0.00000000	      0.00000000	     17.66388540	     -4.28847170	      2.07950595	     -2.64969203	    -27.52879206	    -28.79793877	    132.43906589	     85.56481193	     -4.61848015	      2.50879384	     -2.92359008	     -8.06116456	    -30.31255050	    138.26312620	     87.69668914	     -9.97275186	     12.53920152
      8.90000000	     -3.24393703	     -3.82506367	     90.79190351	      0.18574262	      0.65504959	      0.62688723	      5.64321166	     -3.24921048	     -8.98953413	      9.46625684	      0.16521735	     31.14891000	      1.82382096	      0.00000000	      6.81076799	      0.57466299	    -10.55001571	      8.55852629	      0.14937446	     32.36327240	     15.86844340	      0.00000000	      0.00307164	      0.20322357	     -0.80403804	      0.00570435	      0.27028735	     -0.85429042	      0.00504640	      0.49411778	     -0.85429042	      0.00351058	      0.49411778	     -0.70353329	      0.00285233	      0.41441350	     -0.65328091	      0.00175514	      0.31479331	     -0.60302853	      0.02194043	      2.29890565	     -4.47181839	      0.00000000	      0.00000000	     18.26847855	     -4.69067710	      2.22319388	     -5.08021911	    -26.44630784	    -26.54306074	    128.01365298	     83.09042202	     -2.34402136	      1.78401027	     -2.70842042	     -6.64621875	    -26.00145788	    132.36245393	     88.06646785	     -8.45006814	     11.93362900
      8.91666667	     -3.06315437	     -4.46800565	     90.57934586	      0.18550463	      0.65469642	      0.62867599	      6.52533563	     -3.07831031	     -8.68197436	      9.57085278	      0.16704289	     30.77226987	      1.42637502	      0.00000000	      7.44730161	      0.37615615	    -10.59273650	      8.43996261	      0.14730514	     32.05294265	     15.77464229	      0.00000000	      0.02810570	      0.23123197	     -0.71766591	      0.05219510	      0.30753852	     -0.76252003	      0.04617486	      0.56221741	     -0.76252003	      0.03212201	      0.56221741	     -0.62795767	      0.02609895	      0.47152823	     -0.58310355	      0.01605960	      0.35817832	     -0.53824943	      0.20075621	      2.61574226	     -3.99144249	      0.00000000	      0.00000000	     19.24792272	     -5.04323494	      1.53833919	     -6.63890861	    -25.47505956	    -26.02245885	    123.58747645	     73.30522199	      7.59759438	      6.72484169	     -1.91146524	     -5.87791348	    -21.37683433	    126.43004413	     88.01439122	     -7.77733091	     11.94124198
